<!-- 3D Package-Creator - Copyright (C) 2022, TRMSC - https://trmsc1.wordpress.com/ -->
<!-- Licensed under the MIT license - http://www.opensource.org/licenses/mit-license.php -->

<!-- Generator: Adobe Illustrator 19.0.0, SVG Export Plug-In . SVG Version: 6.00 Build 0)  -->
<svg width="100%" height="auto" version="1.1" viewBox="0 0 2632 664.25" xml:space="preserve" xmlns="http://www.w3.org/2000/svg">

<g>
  <g transform="matrix(.53315 0 0 1.8756 -60.27 780)" stroke-width="1.4727" aria-label="&lt;">
    <path d="m313.19-233.78t-3.5738 0.82471q21.718 12.096 63.778 19.243 56.631 9.3468 67.077 12.371 6.5977 2.1992 13.47 4.3985 10.996 3.5738 14.02 3.5738 0.82472 0 1.0996-0.27491 13.195 6.8726 14.295 23.367l-4.6734 2.7491q-30.515-13.195-104.19-30.24-67.627-15.67-103.64-34.088l-1.6494-6.0479 1.3745-5.4981q3.2989-2.4742 6.8726-2.1992 12.096-5.2232 34.913-12.096 25.566-7.6974 35.463-11.546 74.225-28.04 130.86-40.411l4.6734 3.2989q0.2749 15.67-14.02 21.718l-1.3745-2.1992q-22.267 0-58.83 13.745-17.319 6.3228-59.105 25.566-30.24 13.745-36.837 13.745zm175.94-77.798q-6.5977-4.1236-10.721-4.1236-11.821 0-59.93 14.02h0.54981q-9.6217 2.7491-82.197 28.315-71.476 25.566-72.85 26.666-3.5738 8.2472-3.5738 8.797 6.0479 19.518 54.156 37.662 31.889 11.821 95.667 27.216 63.778 15.395 75.049 19.518l-0.82472-0.27491q7.9723 3.8487 8.797 3.8487 6.3228 0 12.646-3.024l3.2989-7.1476-0.82472-4.3985 0.27491 0.54981q-4.6734-15.945-23.092-25.841l-1.0996 0.54981q-5.2232-6.3228-15.945-12.371l-2.1992 1.6494q-27.216-9.0719-48.109-13.195l0.82472 0.2749q-12.646-3.2989-32.714-6.3228-27.491-4.1236-32.714-4.9483 23.917-11.271 72.3-31.339l-0.54981 0.27491q36.837-11.271 56.906-12.371l3.024 1.9243q20.068-8.5221 23.642-23.092l-0.2749 0.54981q0.54981 0 0.54981-4.3985 0 0-2.7491-7.1476-6.3228-4.1236-10.996-4.1236-1.9243 0-3.2989 0.54981 0.2749-0.54981-3.024-8.2472z"/>
  </g>
  <g transform="matrix(1.0235 0 0 .97705 -60.27 780)" stroke-width="2.644" aria-label="3D">
    <path d="m552.75-368.12q0 44.341-33.256 67.717-29.159 20.725-75.187 20.725-54.704 0-98.804-20.243-4.5787-2.1689-4.5787-4.3377 0 0.72295 11.567-37.594 1.4459-5.3017 4.3377-5.3017 42.895 21.93 70.609 21.93 65.789 0 65.789-47.715 0-29.641-22.653-41.208-16.146-8.4345-48.438-8.4345-6.7476 0-18.797 0.48197-12.049 0.48197-17.11 0.48197-13.977 0-13.977-5.7836 0-32.774 7.2296-32.774 10.603 0 31.81 2.4098 21.448 2.4098 32.051 2.4098 15.905 0 25.785-10.603 10.121-10.603 10.121-26.508 0-44.341-57.596-44.341-33.738 0-60.728 14.218-0.96394 0.48197-2.4098 0.48197-6.0246 0-6.0246-35.907 0-12.049 38.799-18.797 26.749-4.5787 48.438-4.5787 40.245 0 68.681 17.592 33.979 20.725 33.979 58.559 0 19.52-10.603 39.04-11.567 20.725-28.677 27.954 49.643 16.628 49.643 70.127z"/>
    <path d="m887-456.56q0 67.717-38.558 117.12-41.931 53.74-107.48 53.74-12.531 0-37.835-0.96394-25.062-0.96394-37.594-0.96394-11.326 0-34.22 0.96394-22.653 0.96394-33.979 0.96394-6.0246 0-6.0246-6.0246 0-26.267 1.9279-79.284 2.1689-53.017 2.1689-79.525 0-27.954-1.9279-84.104-1.9279-56.15-1.9279-84.104 0-5.0607 6.2656-5.0607 8.9164 0 26.508 0.24098 17.833 0.24099 26.749 0.24099 8.1935 0 25.062-0.24099 16.869-0.24098 25.544-0.24098 83.622 0 124.59 31.569 29.4 22.653 45.546 60.969 15.182 35.666 15.182 74.705zm-59.041 0q0-52.053-29.641-84.827-30.846-33.979-82.417-33.979-42.654 0-34.461-0.48197-28.195 1.4459-28.195 10.362 0 18.556-0.96395 55.668-0.72295 36.871-0.72295 55.427 0 18.315 0.72295 54.945 0.96395 36.63 0.96395 54.945 0 9.1574 28.918 10.603-3.8558-0.24098 35.184-0.24098 27.713 0 44.1-5.7836 20.243-7.2296 36.389-26.749 30.123-36.63 30.123-89.888z"/>
  </g>
  <g transform="matrix(.9495 0 0 1.0532 -60.27 775.71)" stroke-width="1.135" aria-label="package creator">
    <path d="m1802.5-495.55q0 14.259-4.0437 24.9-3.9372 10.641-10.96 17.664-7.0231 7.0231-16.6 10.535-9.577 3.5116-20.75 3.5116-5.1077 0-10.216-0.53205-5.0013-0.53206-10.215-1.809v44.693h-18.516v-150.47h16.494l1.1706 17.877q7.9808-10.96 17.026-15.323 9.045-4.4693 19.58-4.4693 9.1514 0 16.068 3.8308t11.599 10.854q4.6821 6.9167 7.0231 16.813 2.3411 9.7898 2.3411 21.921zm-18.941 0.85129q0-8.4065-1.2769-15.43-1.1706-7.0231-3.8308-12.024-2.6603-5.0013-6.8104-7.768-4.15-2.8731-9.8962-2.8731-3.5116 0-7.1295 1.1705-3.618 1.0641-7.5552 3.7244-3.8308 2.5539-8.1937 6.9167-4.2564 4.2564-9.1513 10.641v51.822q5.1077 2.1282 10.748 3.4052 5.6398 1.1705 11.067 1.1705 15.004 0 23.517-10.109 8.5129-10.215 8.5129-30.646z"/>
    <path d="m1899.7-440.22-0.4256-14.366q-8.7257 8.6193-17.771 12.45-8.9385 3.8308-18.835 3.8308-9.1514 0-15.642-2.341-6.4911-2.341-10.748-6.3847-4.15-4.15-6.1718-9.6834-1.9154-5.5334-1.9154-12.024 0-16.068 11.918-25.113 12.024-9.1514 35.435-9.1514h22.134v-9.3642q0-9.4706-6.0654-15.11-6.0655-5.7462-18.516-5.7462-9.0449 0-17.877 2.0218-8.7257 2.0218-18.09 5.7462v-16.707q3.5116-1.2769 7.768-2.4475 4.3629-1.2769 9.1514-2.2346t10.003-1.4898q5.2141-0.63846 10.535-0.63846 9.6834 0 17.451 2.1282t13.089 6.4911q5.427 4.3628 8.3001 10.96t2.8731 15.536v73.636zm-2.0218-48.63h-23.517q-6.9168 0-11.918 1.3834-5.0013 1.3833-8.1936 3.9372-3.1924 2.5539-4.7885 6.1718-1.4898 3.5116-1.4898 7.9808 0 3.0859 0.9577 5.959 0.9577 2.7667 3.0859 5.0013 2.1282 2.1282 5.5334 3.4052 3.4052 1.2769 8.3001 1.2769 6.3846 0 14.578-3.8308 8.3001-3.9372 17.451-12.344z"/>
    <path d="m2033.9-444.16q-7.236 2.7667-14.898 4.0436-7.5552 1.3834-15.642 1.3834-25.326 0-39.053-13.727-13.621-13.727-13.621-40.117 0-12.663 3.9372-22.985t11.067-17.664q7.1296-7.3424 17.026-11.28 9.8962-4.0436 21.814-4.0436 8.3001 0 15.536 1.1705 7.236 1.1705 13.834 3.8308v17.664q-6.9168-3.618-14.153-5.2141-7.1296-1.7026-14.791-1.7026-7.1295 0-13.514 2.7667-6.2782 2.6603-11.067 7.768-4.7885 5.1077-7.5552 12.45t-2.7667 16.6q0 19.367 9.3642 29.05 9.4706 9.577 26.177 9.577 7.5552 0 14.578-1.7026 7.1296-1.7026 13.727-5.1077z"/>
    <path d="m2166.8-440.22h-25.432l-49.8-57.249v57.249h-18.516v-150.36h18.516v92.365l47.991-48.843h24.475l-50.12 49.268z"/>
    <path d="m2259.2-440.22-0.4256-14.366q-8.7257 8.6193-17.771 12.45-8.9385 3.8308-18.835 3.8308-9.1514 0-15.642-2.341-6.4911-2.341-10.748-6.3847-4.15-4.15-6.1719-9.6834-1.9154-5.5334-1.9154-12.024 0-16.068 11.918-25.113 12.024-9.1514 35.435-9.1514h22.134v-9.3642q0-9.4706-6.0654-15.11-6.0655-5.7462-18.516-5.7462-9.0449 0-17.877 2.0218-8.7257 2.0218-18.09 5.7462v-16.707q3.5115-1.2769 7.768-2.4475 4.3628-1.2769 9.1513-2.2346 4.7886-0.9577 10.003-1.4898 5.2141-0.63846 10.535-0.63846 9.6834 0 17.451 2.1282t13.089 6.4911q5.427 4.3628 8.3001 10.96t2.8731 15.536v73.636zm-2.0218-48.63h-23.517q-6.9168 0-11.918 1.3834-5.0013 1.3833-8.1937 3.9372-3.1923 2.5539-4.7885 6.1718-1.4897 3.5116-1.4897 7.9808 0 3.0859 0.9577 5.959 0.9577 2.7667 3.0859 5.0013 2.1282 2.1282 5.5334 3.4052 3.4052 1.2769 8.3001 1.2769 6.3846 0 14.578-3.8308 8.3001-3.9372 17.451-12.344z"/>
    <path d="m2387.3-531.95q2.9795 3.7244 4.5757 8.7257 1.7026 4.8949 1.7026 10.641 0 8.3001-3.0859 15.217-2.9795 6.8103-8.5129 11.705t-13.301 7.6616q-7.6616 2.6603-16.919 2.6603-6.7039 0-12.556-1.3834-5.8526-1.4898-9.2578-3.618-2.0218 2.9795-3.4051 5.6398-1.3834 2.6603-1.3834 5.959 0 4.0436 3.8308 6.7039 3.9372 2.6603 10.322 2.8731l28.092 1.0641q7.9809 0.21282 14.685 2.0218 6.8103 1.809 11.599 5.2142 4.8949 3.4052 7.5552 8.4065 2.7667 5.0013 2.7667 11.599 0 7.1295-3.0859 13.514-3.086 6.3847-9.577 11.173-6.3847 4.8949-16.281 7.768-9.8963 2.8731-23.517 2.8731-12.982 0-22.134-2.1282-9.045-2.0218-14.898-5.7462-5.8526-3.618-8.5129-8.7257-2.6602-5.0013-2.6602-11.067 0-7.768 3.6179-13.621 3.618-5.8526 11.173-11.28-2.7667-1.2769-4.7885-3.1923t-3.2987-4.15q-1.277-2.341-1.9154-4.8949-0.6385-2.5539-0.6385-5.0013 0-6.9167 3.1923-12.663 3.2988-5.7462 7.768-10.854-2.0218-2.4474-3.6179-4.7885-1.4898-2.341-2.6603-5.0013-1.0641-2.7667-1.7026-5.8526-0.5321-3.1923-0.5321-7.236 0-8.3001 2.9796-15.11 3.0859-6.9167 8.5128-11.812 5.5334-4.8949 13.195-7.5552 7.768-2.7667 17.132-2.7667 3.9372 0 7.5552 0.53205 3.618 0.53206 6.3847 1.3834h38.734v15.11zm-64.272 107.16q0 7.5552 7.8744 10.96 7.8745 3.5116 21.921 3.5116 8.8321 0 14.791-1.5962 6.0654-1.5962 9.6834-4.2564 3.7244-2.5539 5.3205-5.959 1.5962-3.2987 1.5962-6.8103 0-6.4911-5.3205-9.577-5.3206-3.0859-16.281-3.618l-27.88-0.9577q-3.5115 2.341-5.8526 4.5757-2.2346 2.2346-3.5115 4.4693-1.277 2.341-1.809 4.5757-0.5321 2.341-0.5321 4.6821zm5.6398-87.364q0 5.1077 1.7026 9.3642 1.7026 4.2564 4.7885 7.236t7.2359 4.6821q4.2565 1.5962 9.3642 1.5962 5.5334 0 9.7898-1.809 4.3629-1.9154 7.236-5.1077 2.9795-3.1923 4.4693-7.3424 1.5961-4.15 1.5961-8.6193 0-5.1077-1.7025-9.3642-1.7026-4.2564-4.7885-7.236-3.086-2.9795-7.3424-4.5757-4.1501-1.7026-9.2578-1.7026-5.5334 0-9.8962 1.9154-4.2565 1.9154-7.236 5.1077-2.8731 3.0859-4.4692 7.236-1.4898 4.15-1.4898 8.6193z"/>
    <path d="m2520.4-499.28q0 3.9372-0.1064 6.5975t-0.3192 5.0013h-75.02q0 16.387 9.1514 25.219 9.1514 8.7257 26.39 8.7257 4.682 0 9.3641-0.31924 4.6821-0.42564 9.045-1.0641 4.3628-0.63847 8.3001-1.3833 4.0436-0.85129 7.4487-1.809v15.217q-7.5552 2.1282-17.132 3.4052-9.4706 1.3833-19.686 1.3833-13.727 0-23.623-3.7244t-16.281-10.748q-6.2783-7.1296-9.3642-17.345-2.9795-10.322-2.9795-23.304 0-11.28 3.1923-21.282 3.2988-10.109 9.4706-17.664 6.2783-7.6616 15.323-12.131 9.045-4.4693 20.537-4.4693 11.173 0 19.792 3.5116 8.6193 3.5116 14.472 10.003 5.959 6.3847 8.9385 15.642 3.0859 9.1514 3.0859 20.537zm-19.26-2.6603q0.3192-7.1295-1.3833-12.982-1.7026-5.959-5.3206-10.215-3.5116-4.2564-8.8321-6.5975-5.3206-2.4475-12.344-2.4475-6.0654 0-11.067 2.341-5.0013 2.341-8.6193 6.5975-3.6179 4.2564-5.8526 10.215-2.2346 5.959-2.7667 13.089z"/>
    <path d="m1794.2-265.68q-7.236 2.7667-14.898 4.0436-7.5551 1.3834-15.642 1.3834-25.326 0-39.053-13.727-13.621-13.727-13.621-40.117 0-12.663 3.9372-22.985t11.067-17.664q7.1295-7.3424 17.026-11.28 9.8963-4.0436 21.814-4.0436 8.3001 0 15.536 1.1705 7.2359 1.1705 13.833 3.8308v17.664q-6.9167-3.618-14.153-5.2141-7.1295-1.7026-14.791-1.7026-7.1296 0-13.514 2.7667-6.2783 2.6603-11.067 7.768t-7.5552 12.45-2.7667 16.6q0 19.367 9.3642 29.05 9.4706 9.577 26.177 9.577 7.5552 0 14.578-1.7026 7.1295-1.7026 13.727-5.1077z"/>
    <path d="m1835.4-368.58h16.919l0.532 19.686q9.4706-11.386 18.622-16.494 9.2577-5.1077 18.622-5.1077 16.6 0 25.113 10.748 8.6193 10.748 7.9808 31.923h-18.728q0.3193-14.046-4.15-20.325-4.3629-6.3847-12.876-6.3847-3.7243 0-7.5551 1.3833-3.7244 1.2769-7.7681 4.2564-3.9372 2.8731-8.4064 7.4488-4.4693 4.5757-9.577 11.067v68.635h-18.728z"/>
    <path d="m2041.1-320.8q0 3.9372-0.1064 6.5975-0.1064 2.6603-0.3192 5.0013h-75.02q0 16.387 9.1514 25.219 9.1513 8.7257 26.39 8.7257 4.6821 0 9.3642-0.31924 4.6821-0.42564 9.045-1.0641 4.3628-0.63846 8.3-1.3833 4.0437-0.85129 7.4488-1.809v15.217q-7.5552 2.1282-17.132 3.4052-9.4706 1.3833-19.686 1.3833-13.727 0-23.623-3.7244t-16.281-10.748q-6.2783-7.1296-9.3642-17.345-2.9795-10.322-2.9795-23.304 0-11.28 3.1923-21.282 3.2988-10.109 9.4706-17.664 6.2783-7.6616 15.323-12.131 9.045-4.4693 20.537-4.4693 11.173 0 19.792 3.5116 8.6194 3.5116 14.472 10.003 5.959 6.3847 8.9385 15.642 3.0859 9.1514 3.0859 20.537zm-19.26-2.6603q0.3192-7.1296-1.3833-12.982-1.7026-5.959-5.3206-10.215-3.5116-4.2564-8.8321-6.5975-5.3206-2.4475-12.344-2.4475-6.0654 0-11.067 2.341-5.0013 2.341-8.6193 6.5975-3.6179 4.2564-5.8526 10.215-2.2346 5.959-2.7667 13.089z"/>
    <path d="m2139.3-261.74-0.4257-14.366q-8.7257 8.6193-17.771 12.45-8.9386 3.8308-18.835 3.8308-9.1513 0-15.642-2.341-6.4911-2.341-10.748-6.3847-4.1501-4.15-6.1719-9.6834-1.9154-5.5334-1.9154-12.024 0-16.068 11.918-25.113 12.024-9.1514 35.435-9.1514h22.134v-9.3642q0-9.4706-6.0655-15.11-6.0654-5.7462-18.516-5.7462-9.0449 0-17.877 2.0218-8.7257 2.0218-18.09 5.7462v-16.707q3.5116-1.2769 7.7681-2.4475 4.3628-1.2769 9.1513-2.2346t10.003-1.4898q5.2141-0.63846 10.535-0.63846 9.6834 0 17.451 2.1282t13.089 6.4911q5.4269 4.3628 8.3 10.96t2.8731 15.536v73.636zm-2.0218-48.63h-23.517q-6.9167 0-11.918 1.3834-5.0014 1.3833-8.1937 3.9372t-4.7885 6.1718q-1.4897 3.5116-1.4897 7.9808 0 3.0859 0.9577 5.959 0.9577 2.7667 3.0859 5.0013 2.1282 2.1282 5.5334 3.4052 3.4051 1.2769 8.3 1.2769 6.3847 0 14.578-3.8308 8.3001-3.9372 17.452-12.344z"/>
    <path d="m2276.6-263.23q-6.2782 1.5962-12.982 2.2346-6.7039 0.74488-13.621 0.74488-20.112 0-30.008-9.045-9.8962-9.1514-9.8962-27.986v-55.759h-29.902v-15.536h29.902v-29.369l18.516-4.7885v34.158h47.991v15.536h-47.991v54.27q0 11.492 6.0655 17.239 6.1718 5.6398 18.09 5.6398 5.1077 0 11.173-0.74488 6.0655-0.85129 12.663-2.5539z"/>
    <path d="m2403.3-316.01q0 12.45-3.5116 22.878-3.5115 10.322-10.109 17.771-6.5975 7.3424-16.068 11.492-9.4706 4.0436-21.495 4.0436-11.492 0-20.644-3.5116-9.0449-3.618-15.43-10.535-6.2783-6.9167-9.6834-17.132-3.2988-10.215-3.2988-23.517 0-12.45 3.5116-22.666 3.5116-10.322 10.109-17.664 6.5974-7.4488 16.068-11.492 9.4706-4.15 21.495-4.15 11.492 0 20.537 3.618 9.1514 3.5116 15.43 10.428 6.3847 6.8103 9.6835 17.026 3.4051 10.215 3.4051 23.41zm-18.941 0.85129q0-9.8962-2.2346-17.239-2.1282-7.4488-6.1718-12.344-4.0437-5.0013-9.8963-7.4488-5.7462-2.5539-12.876-2.5539-8.3001 0-14.259 3.2988-5.8526 3.1923-9.6834 8.6193-3.7244 5.427-5.5334 12.663-1.7026 7.1296-1.7026 15.004 0 9.8962 2.1282 17.345 2.2347 7.4488 6.2783 12.45 4.0436 4.8949 9.7898 7.4488 5.7462 2.4474 12.982 2.4474 8.3 0 14.153-3.1923 5.9591-3.2987 9.6835-8.7257 3.8308-5.427 5.5333-12.557 1.809-7.236 1.809-15.217z"/>
    <path d="m2434.5-368.58h16.919l0.5321 19.686q9.4706-11.386 18.622-16.494 9.2578-5.1077 18.622-5.1077 16.6 0 25.113 10.748 8.6193 10.748 7.9808 31.923h-18.728q0.3192-14.046-4.1501-20.325-4.3628-6.3847-12.876-6.3847-3.7244 0-7.5552 1.3833-3.7244 1.2769-7.768 4.2564-3.9372 2.8731-8.4065 7.4488-4.4693 4.5757-9.577 11.067v68.635h-18.728z"/>
  </g>
  <g transform="matrix(.85211 0 0 1.1736 -60.27 775.71)" stroke-width="3.1757" aria-label="&gt;">
    <path d="m3060.2-349.22q0 6.9468-6.6574 10.131-74.1 36.181-148.2 103.04-1.7367 2.0262-6.3679 4.0523-21.709-37.629-21.709-40.234 0-13.025 56.154-51.522 49.207-33.866 70.916-43.128 3.184-1.1578 6.3679-4.3418-1.7367-1.7367-6.9468-4.0523-84.809-36.471-124.46-85.967-2.8945-3.4734-2.8945-5.4996 0-1.1578 8.3941-16.788 8.3941-15.92 9.2624-19.104 1.1578-3.184 2.3156-3.184 1.4473 0 6.6574 3.7629 24.603 21.13 76.415 60.495 30.392 19.683 35.892 23.156 23.446 14.183 37.05 19.393 7.8152 2.8945 7.8152 10.131z"/>
  </g>
  </g>
  <g transform="translate(-60.27 780)" stroke="#000" stroke-width="1px">
    <path d="m1043.4-545.97 129.93-131.72 309.23 3.7193-128 128h-311.17" fill="#00f5ff" opacity=".2"/>
    <path d="m1043.4-204.63 314.2 0.51707 124.97-128.52h-311.17l-128 128" fill="#46ff00" opacity=".2"/>
    <path d="m1027.7-531.32 128.54-127.56v311.17l-128 128" fill="#ff003c" opacity=".2"/>
    <path d="m1369.6-530.89 128-128v304.92l-128 134.25v-311.17" fill="#0007ff" opacity=".2"/>
  </g>
  <g transform="translate(-60.27 780)"><rect x="1028.3" y="-524.63" width="320" height="320" fill="#5300ff" fill-rule="evenodd" opacity=".2"/>
  </g>
  <g transform="translate(-60.27 780)"><rect x="1177.6" y="-673.97" width="320" height="320" fill="#ff8400" fill-rule="evenodd" opacity=".2"/>
    <path d="m1171.4-332.63-128 128 324.67 1.2563 114.5-129.26z" fill="none" stroke="#000" stroke-width="1px"/>
    <g transform="translate(1006.9 -695.3)"><path d="m511.53 8.384c-0.128-0.576-0.128-1.195-0.363-1.749-1.088-2.645-3.179-4.736-5.824-5.824-0.555-0.235-1.152-0.213-1.749-0.363-0.726-0.149-1.451-0.448-2.262-0.448h-341.33c-0.619 0-1.173 0.256-1.771 0.363-0.768 0.128-1.557 0.149-2.283 0.448-1.323 0.555-2.496 1.323-3.499 2.325l-149.33 149.33c-0.085 0.085-0.107 0.213-0.213 0.299-0.853 0.917-1.6 1.963-2.091 3.136-0.534 1.344-0.811 2.731-0.811 4.139v341.27c0 1.408 0.277 2.816 0.832 4.117 0.299 0.704 0.811 1.237 1.237 1.856 0.363 0.533 0.576 1.109 1.045 1.579 0.363 0.341 0.811 0.491 1.195 0.789 0.725 0.555 1.429 1.152 2.283 1.493 1.301 0.577 2.688 0.854 4.075 0.854h341.33c1.387 0 2.773-0.277 4.075-0.832 1.173-0.491 2.219-1.216 3.136-2.091 0.085-0.085 0.213-0.107 0.32-0.213l149.33-149.33c0.981-0.981 1.771-2.176 2.304-3.477 0.299-0.747 0.341-1.515 0.469-2.304 0.107-0.576 0.363-1.131 0.363-1.749v-341.33c0-0.811-0.299-1.536-0.469-2.283zm-362.2 28.032v112.92h-112.92zm-128 134.25h128v176.92l-128 128zm320 320h-304.92l128-128h176.92zm0-149.33h-170.67v-170.67h170.67v170.67zm6.251-192h-176.92v-128h304.92zm15.083 326.25v-112.92h112.92zm128-134.25h-128v-176.92l128-128z"/>
    </g>
  </g>
</svg>
